<svg width="308" height="308" viewBox="0 0 308 308" fill="none" xmlns="http://www.w3.org/2000/svg">
<path d="M24.0148 27.0445H26.6414C26.5977 27.2947 26.4934 27.501 26.3285 27.6632C26.1635 27.8254 25.9522 27.9264 25.6945 27.9664L17.4624 28.9853C17.0925 29.0377 16.7605 28.9502 16.4663 28.7228C16.1721 28.4954 16.0026 28.1967 15.9578 27.8265L15.0111 20.169C14.9664 19.7988 15.0569 19.466 15.2827 19.1707C15.5085 18.8752 15.8063 18.7075 16.176 18.6676L16.9646 18.5848V19.6979L16.3258 19.7694C16.2592 19.7741 16.2069 19.8014 16.169 19.8514C16.1309 19.9013 16.1166 19.9596 16.1262 20.0261L17.0701 27.6838C17.0796 27.7505 17.1082 27.8028 17.1558 27.8408C17.2032 27.8789 17.2602 27.8932 17.3269 27.8836L24.0148 27.0445ZM19.7881 25.5604C19.4135 25.5604 19.0965 25.4305 18.837 25.1708C18.5774 24.9111 18.4477 24.5937 18.4477 24.2189V16.3415C18.4477 15.9666 18.5774 15.6493 18.837 15.3896C19.0965 15.1299 19.4135 15 19.7881 15H27.6595C28.0341 15 28.3512 15.1299 28.6107 15.3896C28.8702 15.6493 29 15.9666 29 16.3415V24.2189C29 24.5937 28.8702 24.9111 28.6107 25.1708C28.3512 25.4305 28.0341 25.5604 27.6595 25.5604H19.7881Z" fill="white"/>
<path d="M286.676 293C286.843 293 287.01 292.967 287.177 292.9C287.345 292.833 287.496 292.734 287.63 292.6L292.612 287.623C292.747 287.488 292.845 287.339 292.907 287.177C292.969 287.014 293 286.849 293 286.68C293 286.512 292.969 286.344 292.907 286.177C292.845 286.01 292.747 285.859 292.612 285.725L286.292 279.4C286.17 279.277 286.025 279.18 285.858 279.108C285.691 279.036 285.519 279 285.341 279H280.34C279.968 279 279.651 279.131 279.391 279.393C279.13 279.656 279 279.971 279 280.339V285.335C279 285.515 279.033 285.686 279.1 285.849C279.167 286.012 279.263 286.154 279.389 286.275L285.726 292.6C285.86 292.734 286.01 292.833 286.176 292.9C286.343 292.967 286.51 293 286.676 293ZM281.971 282.89C281.713 282.89 281.494 282.8 281.313 282.621C281.133 282.442 281.042 282.224 281.042 281.969C281.042 281.711 281.132 281.492 281.312 281.311C281.492 281.131 281.711 281.041 281.968 281.041C282.225 281.041 282.444 281.13 282.623 281.31C282.803 281.49 282.893 281.709 282.893 281.966C282.893 282.223 282.803 282.441 282.624 282.62C282.445 282.8 282.227 282.89 281.971 282.89Z" fill="white"/>
</svg>
