<svg width="24" height="24" viewBox="0 0 24 24" fill="none" xmlns="http://www.w3.org/2000/svg">
<path d="M18.0523 8.25099H5.94853C5.65788 8.23926 5.37281 8.3323 5.1463 8.51282C4.91978 8.69334 4.76722 8.94907 4.71697 9.23247L3.00171 21.0365C2.99282 21.1985 3.01868 21.3607 3.07757 21.5121C3.13648 21.6636 3.22709 21.801 3.34346 21.9154C3.45984 22.0298 3.59935 22.1185 3.75285 22.1758C3.90635 22.2331 4.07036 22.2576 4.23413 22.2479H19.7667C19.9304 22.2577 20.0944 22.2331 20.2479 22.1759C20.4013 22.1185 20.5408 22.0297 20.6571 21.9154C20.7735 21.8009 20.8639 21.6635 20.9228 21.512C20.9815 21.3606 21.0072 21.1985 20.9982 21.0365L19.283 9.23247C19.2328 8.94921 19.0803 8.69361 18.854 8.51311C18.6277 8.33261 18.3428 8.23947 18.0523 8.25099Z" stroke="white" stroke-width="1.5" stroke-linecap="round" stroke-linejoin="round"/>
<path d="M15.662 5.057C15.4978 4.19892 15.0402 3.42469 14.3677 2.86697C13.6952 2.30924 12.8497 2.00275 11.976 2C11.1067 2.00381 10.2655 2.30852 9.59536 2.86234C8.92523 3.41616 8.46754 4.18493 8.30005 5.038" stroke="white" stroke-width="1.5" stroke-linecap="round" stroke-linejoin="round"/>
</svg>
