<svg width="200" height="200" viewBox="0 0 200 200" fill="none" xmlns="http://www.w3.org/2000/svg">
<path d="M57.5149 51.3336C57.4847 51.3068 57.4823 51.2507 57.5149 51.3336Z" fill="black"/>
<path d="M99.9147 105.097V105.099C99.9338 105.099 99.9521 105.1 99.9704 105.1C100.026 105.098 100.083 105.097 100.141 105.097H99.9139H99.9147Z" fill="black"/>
<path d="M140.297 130.365C139.396 125.267 139.706 126.236 138.45 124.08C137.597 122.618 137.851 123.277 134.611 121.156C131.484 119.111 131.057 117.795 128.499 116.626C125.939 115.456 123.95 115.456 123.95 115.456C123.95 115.456 121.959 113.264 116.556 114.287C111.796 115.189 110.018 115.895 110.018 115.895C110.018 115.895 112.906 114.063 118.122 110.487C121.533 108.15 122.736 105.942 124.804 103.325C126.651 100.988 127.504 101.572 128.356 100.695C129.209 99.8174 129.352 97.9174 129.352 97.9174C129.352 97.9174 132.907 96.8934 134.043 93.3861C136.076 87.1155 138.023 81.9843 138.307 80.085C138.592 78.1842 140.013 78.0378 140.439 75.4066C140.866 72.7761 139.728 70.4052 140.439 63.2751C141.008 57.5742 141.577 56.4046 142.003 53.7742C142.285 52.0341 142.433 51.5142 142.485 51.3829C142.437 51.4251 142.312 51.3836 142.145 50.4125C141.718 47.9284 140.723 48.2204 139.585 45.1508C138.45 42.0819 137.453 40.7666 137.453 40.7666L136.742 41.4163C136.742 41.4163 137.597 44.3169 138.591 46.4675C140.013 49.5364 139.728 50.2676 139.728 50.2676C139.728 50.2676 140.026 51.1844 139.444 55.9685C139.303 57.1388 137.027 69.5623 137.027 69.5623C137.027 69.5623 134.646 73.3881 134.326 75.1161C133.756 78.185 132.194 85.6395 129.636 88.7099C125.592 93.5604 125.907 95.8475 125.936 96.0083C125.906 95.886 125.39 94.7458 117.126 101.573C114.058 104.103 108.31 109.61 108.31 109.61C108.31 109.61 110.468 106.68 116.272 99.0877C117.836 97.0413 118.404 94.9941 119.967 91.3404C121.531 87.6859 123.947 85.9323 124.516 84.4699C125.083 83.009 124.516 81.5466 124.516 81.5466C124.516 81.5466 126.649 80.377 126.792 78.3306C127.055 74.5147 126.648 74.9689 126.506 67.9528C126.365 60.9367 129.067 52.5012 127.787 49.5357C125.511 44.2739 123.663 38.281 122.669 34.1882C120.633 25.8175 123.39 29.232 120.393 25.1263C119.114 23.3727 120.079 25.6364 118.261 21.7647C116.272 17.5262 114.965 14.2188 114.965 14.2188L113.962 14.3471C113.962 14.3471 114.067 16.6501 115.419 18.8422C117.877 22.8324 116.982 26.5887 118.12 28.9272C119.259 31.2664 120.394 35.2121 120.394 35.2121C120.394 35.2121 123.095 43.1058 123.095 46.3211C123.095 49.5364 121.816 50.1212 122.101 52.7517C122.386 55.3837 123.664 56.8453 122.811 62.3998C121.958 67.9536 120.964 69.708 120.679 72.9232C120.395 76.1385 121.391 78.477 121.391 78.477C121.391 78.477 119.4 79.061 119.115 79.9379C117.99 83.4135 116.485 85.0547 115.988 85.7851C114.171 88.4556 110.87 91.7773 108.739 97.0398C105.678 104.591 104.332 108.442 104.332 108.442C104.332 108.442 104.332 105.371 106.322 99.5246C107.126 97.165 106.607 96.6014 106.607 96.6014C106.607 96.6014 105.398 97.0398 104.333 99.6718C103.266 102.301 102.627 106.467 102.627 106.467C102.627 106.467 101.85 105.117 99.9725 105.098C98.1738 105.166 97.3709 106.412 97.3709 106.412C97.3709 106.412 96.731 102.245 95.6654 99.6144C94.5998 96.9839 93.3919 96.5455 93.3919 96.5455C93.3919 96.5455 92.873 97.1092 93.6766 99.4688C95.6661 105.315 95.6661 108.384 95.6661 108.384C95.6661 108.384 94.3202 104.535 91.26 96.9839C89.1281 91.7222 85.8279 88.399 84.0101 85.7293C83.5132 84.9981 82.0095 83.3576 80.8831 79.8828C80.5983 79.006 78.6073 78.4204 78.6073 78.4204C78.6073 78.4204 79.6032 76.0827 79.3184 72.8667C79.0352 69.6514 78.0393 67.897 77.1866 62.3432C76.3338 56.7895 77.6129 55.3271 77.8977 52.6966C78.1824 50.0661 76.9033 49.4813 76.9033 46.266C76.9033 43.0508 79.6039 35.157 79.6039 35.157C79.6039 35.157 80.7414 31.2113 81.8789 28.8721C83.0164 26.5344 82.1226 22.7766 84.5803 18.7871C86.0488 16.4018 85.753 15.0964 85.6466 14H84.7939C84.7939 14 83.7275 17.4711 81.7373 21.7103C79.9202 25.5821 80.8853 23.3184 79.6054 25.072C76.6097 29.1785 79.3662 25.7632 77.3304 34.1346C76.336 38.2274 74.4881 44.2196 72.2124 49.4821C70.9311 52.4476 73.6346 60.8823 73.4923 67.8992C73.3492 74.9146 72.9433 74.4611 73.2075 78.277C73.3506 80.3235 75.4825 81.4923 75.4825 81.4923C75.4825 81.4923 74.9145 82.9547 75.4825 84.4156C76.0505 85.878 78.4672 87.6316 80.031 91.2861C81.5949 94.9405 82.1629 96.987 83.7268 99.0334C89.5302 106.628 91.6878 109.558 91.6878 109.558C91.6878 109.558 85.9402 104.051 82.874 101.518C74.6092 94.6923 74.0926 95.8324 74.0617 95.9547C74.061 95.9607 74.0603 95.9645 74.0603 95.9645C74.0603 95.9645 74.0603 95.9607 74.0617 95.9547C74.0904 95.7939 74.4074 93.5068 70.3638 88.6556C67.8055 85.5852 66.2416 78.1321 65.6729 75.0617C65.3522 73.3322 62.9715 69.508 62.9715 69.508C62.9715 69.508 60.6965 57.0838 60.5549 55.9142C59.9736 51.1301 60.2701 50.2133 60.2701 50.2133C60.2701 50.2133 59.9846 49.4828 61.4076 46.4132C62.4739 44.1117 63.2548 41.4073 63.2269 41.1726L62.5451 40.7138C61.9771 41.079 61.5493 42.0283 60.4132 45.0979C59.2765 48.1668 58.2813 47.8748 57.8535 50.3597C57.6869 51.3308 57.5621 51.3731 57.5137 51.3301C57.5651 51.4614 57.7133 51.9813 57.9959 53.7221C58.4222 56.3526 58.9917 57.5222 59.5597 63.2231C60.2716 70.3546 59.1334 72.724 59.5597 75.3545C59.9854 77.985 61.4084 78.1321 61.6916 80.0314C61.9756 81.9322 63.9226 87.0619 65.9554 93.3325C67.0929 96.8413 70.647 97.8638 70.647 97.8638C70.647 97.8638 70.7887 99.7631 71.6414 100.641C72.4942 101.517 73.3477 100.933 75.1956 103.273C77.2629 105.888 78.4657 108.094 81.8775 110.434C87.0945 114.009 89.9801 115.842 89.9801 115.842C89.9801 115.842 88.2019 115.136 83.4413 114.234C78.0386 113.209 76.0498 115.401 76.0498 115.401C76.0498 115.401 74.0588 115.401 71.4998 116.571C68.9415 117.74 68.5152 119.056 65.3874 121.103C62.1466 123.222 62.4013 122.563 61.5485 124.025C60.2914 126.181 60.6026 125.214 59.7014 130.31C58.5639 136.741 57 143.464 57 143.464C57.3376 143.52 57.6098 143.486 57.8417 143.389C58.4575 143.135 58.707 138.312 60.6972 132.939C62.9722 126.802 64.6777 126.509 64.6777 126.509C64.6777 126.509 67.236 126.655 71.2165 123.877C75.1963 121.102 75.4803 120.077 75.4803 120.077C75.4803 120.077 77.0442 120.809 79.8872 120.37C85.651 119.481 88.8441 121.395 88.8441 121.395C88.8441 121.395 85.5578 120.581 79.4608 124.317C72.07 128.848 73.9172 130.895 73.9172 130.895C73.9172 130.895 72.4949 131.188 70.363 135.133C68.3119 138.929 68.5357 141.043 67.0936 146.973C65.6729 152.82 64.8186 151.505 64.2506 154.72C63.6826 157.936 65.6545 160.389 67.2368 167.437C68.0895 171.237 68.5467 173.413 71.6429 178.985C73.9179 183.078 75.6234 185.451 77.0457 185.855L77.4368 185.344C77.0383 184.55 75.244 182.533 72.4971 176.353C70.2236 171.238 69.456 168.889 68.375 162.031C67.5222 156.622 70.3454 159.496 70.2236 155.599C70.0798 151.068 72.6402 143.321 74.9145 137.473C77.188 131.626 78.7519 133.673 79.3207 132.649C80.9653 129.69 84.0747 128.747 85.0067 128.411C87.8497 127.388 89.4136 127.973 89.4136 127.973C89.4136 127.973 87.4938 128.338 85.7882 131.553C84.0835 134.768 82.2348 138.058 82.2348 144.488C82.2348 150.918 84.7696 156.602 88.7384 160.292C93.7757 164.975 99.9329 164.843 99.9329 164.843C99.9329 164.843 106.748 164.791 111.262 160.347C115.129 156.544 117.767 150.975 117.767 144.543C117.767 138.111 115.919 134.823 114.212 131.608C112.506 128.391 110.587 128.026 110.587 128.026C110.587 128.026 112.151 127.44 114.995 128.465C115.927 128.8 119.034 129.744 120.68 132.703C121.25 133.728 122.812 131.68 125.086 137.528C127.362 143.374 129.922 151.121 129.779 155.653C129.656 159.55 132.479 156.675 131.626 162.083C130.543 168.943 129.779 171.292 127.504 176.408C124.489 183.188 122.783 184.67 122.643 185.451C122.598 185.711 122.928 185.599 123.283 186C123.283 186 126.082 183.132 128.356 179.039C131.453 173.467 131.911 171.294 132.764 167.494C134.346 160.446 136.319 157.992 135.75 154.777C135.182 151.56 134.328 152.878 132.908 147.029C131.465 141.1 131.687 138.986 129.638 135.189C127.506 131.244 126.084 130.952 126.084 130.952C126.084 130.952 127.932 128.904 120.54 124.374C114.443 120.637 111.158 121.45 111.158 121.45C111.158 121.45 114.35 119.538 120.113 120.427C122.955 120.865 124.52 120.135 124.52 120.135C124.52 120.135 124.805 121.159 128.784 123.935C132.763 126.711 135.322 126.567 135.322 126.567C135.322 126.567 137.029 126.857 139.305 132.996C141.215 138.159 140.615 142.391 141.981 143.347C142.239 143.527 143 143.521 143 143.521C143 143.521 141.436 136.797 140.299 130.367L140.297 130.365ZM104.971 151.554C101.985 152.432 103.157 152.266 100.172 152.266C97.1867 152.266 98.1202 152.403 95.1341 151.525C93.3669 151.007 92.4063 150.371 92.8958 147.635C93.3757 144.948 94.4428 146.865 96.7868 144.455C97.1075 144.126 98.2802 143.031 98.2266 141.934C98.1488 140.328 98.3866 139.359 97.2139 138.206C94.9873 136.022 93.874 134.005 95.7212 132.835C97.5698 131.665 100.172 131.822 100.172 131.822C100.172 131.822 102.535 131.694 104.383 132.864C106.232 134.031 105.118 136.05 102.89 138.235C101.718 139.386 101.958 140.357 101.878 141.962C101.826 143.057 102.999 144.155 103.319 144.484C105.663 146.894 106.73 144.977 107.21 147.663C107.698 150.398 106.737 151.035 104.972 151.555L104.971 151.554Z" fill="black"/>
<path d="M142.485 51.3872C142.518 51.3043 142.515 51.3604 142.485 51.3872Z" fill="black"/>
</svg>
