<svg width="32" height="32" viewBox="0 0 32 32" fill="none" xmlns="http://www.w3.org/2000/svg">
<g opacity="0.6">
<rect width="32" height="32" rx="16" fill="white"/>
<path d="M15.9969 6C10.4736 6 6 9.91728 6 14.7445C6 18.3131 7.58076 20.0148 9.74258 21.5687H9.75508V25.7578C9.75508 25.8877 9.86754 26 10.0112 26C10.0675 26 10.1175 25.9823 10.1612 25.9527L13.9538 23.288L14.035 23.3235C14.6848 23.4357 15.3408 23.4948 16.0031 23.4948C21.5264 23.4948 26 19.5775 26 14.7504C26 9.92319 21.5202 6 15.9969 6ZM12.5792 16.9601C12.5792 16.9601 12.6229 16.9601 12.6417 16.9601C13.6226 16.9601 14.4599 16.4047 14.7098 15.548H16.1593C15.8032 17.1965 14.4474 18.2777 12.6417 18.2777C10.5423 18.2777 8.8741 16.7947 8.8741 14.7326C8.8741 12.6706 10.5423 11.1876 12.6417 11.1876C14.4661 11.1876 15.8344 12.2925 16.1718 13.9705H14.7285C14.5098 13.0606 13.6414 12.4874 12.6417 12.4874C11.2296 12.4874 10.2924 13.4387 10.2924 14.7326C10.2737 15.9439 11.2983 16.9424 12.5792 16.9601ZM22.1949 18.1418H20.8641V15.3058C20.8641 14.6558 20.4642 14.3013 19.8457 14.3013C19.1584 14.3013 18.7148 14.7031 18.7148 15.5066V18.1359H17.3839V11.2112H18.7148V13.8168C19.0334 13.3619 19.5458 13.1374 20.2518 13.1374C20.8204 13.1374 21.2827 13.3146 21.6389 13.675C22.0075 14.0354 22.1949 14.5199 22.1949 15.1581V18.1477V18.1418Z" fill="#333333"/>
</g>
</svg>
