<svg width="36" height="72" viewBox="0 0 36 72" fill="none" xmlns="http://www.w3.org/2000/svg">
<path d="M0.215653 15.6282C0.201855 15.5931 0.202889 15.6169 0.215653 15.6282V15.6282Z" fill="white"/>
<path d="M17.9643 38.1337V38.1345C17.9723 38.1345 17.98 38.1347 17.9876 38.1347C18.011 38.134 18.0346 38.1337 18.0589 38.1337H17.964H17.9643Z" fill="white"/>
<path d="M34.8686 48.711C34.4913 46.577 34.6213 46.9826 34.0954 46.0801C33.7384 45.468 33.8447 45.744 32.4884 44.8561C31.1794 43.9998 31.0006 43.4492 29.9297 42.9596C28.8582 42.47 28.0257 42.47 28.0257 42.47C28.0257 42.47 27.1922 41.5524 24.9306 41.9804C22.9378 42.3582 22.1938 42.6535 22.1938 42.6535C22.1938 42.6535 23.4026 41.8869 25.5859 40.39C27.0137 39.4117 27.5176 38.4875 28.3829 37.3921C29.1562 36.4135 29.5134 36.658 29.8698 36.2909C30.2271 35.9236 30.287 35.1282 30.287 35.1282C30.287 35.1282 31.7751 34.6996 32.2506 33.2314C33.1016 30.6065 33.9166 28.4585 34.0354 27.6635C34.1546 26.8678 34.7497 26.8065 34.9279 25.7051C35.1067 24.604 34.6305 23.6115 34.9279 20.6268C35.1663 18.2404 35.4043 17.7508 35.5825 16.6496C35.7008 15.9212 35.7628 15.7036 35.7843 15.6486C35.7644 15.6663 35.7118 15.649 35.6421 15.2424C35.4633 14.2026 35.0468 14.3248 34.5706 13.0399C34.0954 11.7552 33.6782 11.2046 33.6782 11.2046L33.3802 11.4766C33.3802 11.4766 33.7381 12.6908 34.1543 13.5911C34.7497 14.8757 34.6305 15.1818 34.6305 15.1818C34.6305 15.1818 34.7549 15.5656 34.5113 17.5682C34.4523 18.0581 33.4997 23.2586 33.4997 23.2586C33.4997 23.2586 32.5028 24.8601 32.3689 25.5835C32.1305 26.8681 31.4765 29.9886 30.4056 31.2739C28.7129 33.3043 28.845 34.2618 28.857 34.329C28.8444 34.2779 28.6284 33.8006 25.169 36.6583C23.8849 37.7177 21.4786 40.023 21.4786 40.023C21.4786 40.023 22.3818 38.7964 24.8114 35.6181C25.4661 34.7615 25.7038 33.9045 26.3585 32.375C27.0128 30.8453 28.0244 30.1112 28.2625 29.499C28.5 28.8875 28.2625 28.2753 28.2625 28.2753C28.2625 28.2753 29.1556 27.7857 29.2152 26.9291C29.3254 25.3317 29.1549 25.5219 29.0953 22.5849C29.0364 19.6479 30.1678 16.1168 29.6317 14.8754C28.6791 12.6728 27.9056 10.1641 27.4893 8.45086C26.6371 4.94688 27.791 6.3762 26.5367 4.65754C26.0012 3.92345 26.4052 4.87107 25.6442 3.25033C24.8114 1.47607 24.2646 0.0916031 24.2646 0.0916031L23.8444 0.145301C23.8444 0.145301 23.8886 1.10934 24.4545 2.02695C25.4833 3.69729 25.1088 5.2697 25.5853 6.24859C26.0617 7.2278 26.537 8.8795 26.537 8.8795C26.537 8.8795 27.6678 12.1838 27.6678 13.5298C27.6678 14.8757 27.1323 15.1205 27.2515 16.2216C27.3707 17.3234 27.9059 17.9352 27.5489 20.2604C27.1919 22.5852 26.7757 23.3196 26.6565 24.6655C26.5373 26.0115 26.9545 26.9904 26.9545 26.9904C26.9545 26.9904 26.121 27.2349 26.0018 27.6019C25.5306 29.0568 24.9005 29.7438 24.6928 30.0496C23.9319 31.1675 22.5504 32.5579 21.658 34.7608C20.377 37.9218 19.8136 39.5337 19.8136 39.5337C19.8136 39.5337 19.8136 38.2484 20.6464 35.801C20.9828 34.8133 20.7656 34.5773 20.7656 34.5773C20.7656 34.5773 20.2596 34.7608 19.8139 35.8626C19.3672 36.9634 19.0996 38.707 19.0996 38.707C19.0996 38.707 18.7743 38.1419 17.9885 38.134C17.2355 38.1625 16.8995 38.6843 16.8995 38.6843C16.8995 38.6843 16.6316 36.9397 16.1855 35.8386C15.7395 34.7375 15.2338 34.5539 15.2338 34.5539C15.2338 34.5539 15.0166 34.7899 15.353 35.7776C16.1858 38.2247 16.1858 39.5097 16.1858 39.5097C16.1858 39.5097 15.6224 37.8984 14.3414 34.7375C13.449 32.5349 12.0675 31.1438 11.3065 30.0262C11.0986 29.7201 10.4691 29.0334 9.99756 27.5788C9.87837 27.2118 9.04493 26.9667 9.04493 26.9667C9.04493 26.9667 9.4618 25.9881 9.34261 24.6419C9.22403 23.2959 8.80715 22.5615 8.45019 20.2367C8.09322 17.9119 8.62867 17.2997 8.74786 16.1986C8.86706 15.0974 8.33161 14.8526 8.33161 13.5067C8.33161 12.1608 9.46211 8.85644 9.46211 8.85644C9.46211 8.85644 9.93827 7.20474 10.4144 6.22553C10.8906 5.24696 10.5164 3.67391 11.5452 2.0039C12.16 1.00542 12.0361 0.458963 11.9916 0H11.6346C11.6346 0 11.1883 1.45301 10.3551 3.22759C9.59451 4.84833 9.99848 3.90071 9.46272 4.6348C8.20873 6.35378 9.36257 4.92414 8.5104 8.42843C8.09414 10.1417 7.32061 12.6501 6.36798 14.853C5.8316 16.0943 6.96333 19.6252 6.90374 22.5625C6.84383 25.4991 6.67395 25.3093 6.78454 26.9067C6.84445 27.7633 7.73687 28.2526 7.73687 28.2526C7.73687 28.2526 7.49909 28.8648 7.73687 29.4763C7.97464 30.0884 8.98625 30.8225 9.6409 32.3523C10.2955 33.8821 10.5333 34.7387 11.188 35.5954C13.6173 38.7746 14.5205 40.0012 14.5205 40.0012C14.5205 40.0012 12.1145 37.6959 10.831 36.6355C7.3713 33.7782 7.15503 34.2554 7.14212 34.3066C7.14182 34.3091 7.14151 34.3107 7.14151 34.3107C7.14151 34.3107 7.14151 34.3091 7.14212 34.3066C7.1541 34.2393 7.28682 33.2819 5.59414 31.2512C4.52323 29.9659 3.86859 26.846 3.63051 25.5607C3.49626 24.8367 2.4997 23.2359 2.4997 23.2359C2.4997 23.2359 1.54737 18.0351 1.48808 17.5455C1.24478 15.5428 1.36889 15.159 1.36889 15.159C1.36889 15.159 1.24939 14.8533 1.84505 13.5683C2.29141 12.6049 2.61828 11.4728 2.6066 11.3746L2.32121 11.1825C2.08344 11.3354 1.90434 11.7328 1.42879 13.0177C0.952938 14.3024 0.536373 14.1802 0.357275 15.2203C0.28754 15.6269 0.235316 15.6445 0.215041 15.6265C0.236545 15.6815 0.2986 15.8991 0.416872 16.6279C0.595356 17.729 0.833744 18.2186 1.07152 20.605C1.3695 23.5903 0.893034 24.5822 1.07152 25.6833C1.24969 26.7844 1.84536 26.846 1.96394 27.6411C2.08282 28.4367 2.89783 30.584 3.74878 33.209C4.22494 34.6778 5.71272 35.1058 5.71272 35.1058C5.71272 35.1058 5.77201 35.9008 6.12897 36.2682C6.48594 36.6352 6.84322 36.3904 7.61675 37.3699C8.48214 38.4648 8.98564 39.3884 10.4138 40.3679C12.5977 41.8642 13.8056 42.6314 13.8056 42.6314C13.8056 42.6314 13.0613 42.3361 11.0685 41.9583C8.80685 41.5294 7.97433 42.447 7.97433 42.447C7.97433 42.447 7.14089 42.447 6.06968 42.9366C4.99878 43.4262 4.8203 43.9767 3.511 44.8337C2.1544 45.721 2.261 45.4449 1.90403 46.0571C1.3778 46.9595 1.50805 46.5549 1.13081 48.688C0.654646 51.3802 0 54.1943 0 54.1943C0.141313 54.2176 0.255284 54.2034 0.35236 54.163C0.610102 54.0565 0.71455 52.0375 1.54768 49.7885C2.5 47.2195 3.21394 47.0969 3.21394 47.0969C3.21394 47.0969 4.28484 47.1579 5.9511 45.9952C7.61706 44.8334 7.73594 44.4044 7.73594 44.4044C7.73594 44.4044 8.39059 44.7108 9.58069 44.527C11.9934 44.1549 13.3301 44.9559 13.3301 44.9559C13.3301 44.9559 11.9544 44.6151 9.4022 46.1793C6.30838 48.0758 7.0816 48.9328 7.0816 48.9328C7.0816 48.9328 6.48625 49.0553 5.59383 50.7067C4.7352 52.2959 4.8289 53.1806 4.22525 55.6631C3.6305 58.1108 3.27292 57.5602 3.03515 58.9061C2.79738 60.2521 3.62283 61.2793 4.28515 64.2295C4.64212 65.8203 4.83351 66.7309 6.12959 69.0633C7.08191 70.7766 7.79585 71.7704 8.3912 71.9394L8.55494 71.7252C8.38813 71.3929 7.63702 70.5486 6.48717 67.9619C5.53546 65.8206 5.21413 64.8373 4.76162 61.9663C4.40465 59.7021 5.58646 60.9053 5.53546 59.2738C5.47525 57.3773 6.54707 54.1343 7.49909 51.6866C8.4508 49.2389 9.10545 50.0958 9.34353 49.6669C10.032 48.4283 11.3336 48.0338 11.7237 47.8929C12.9138 47.4649 13.5685 47.7097 13.5685 47.7097C13.5685 47.7097 12.7648 47.8626 12.0509 49.2082C11.3373 50.5541 10.5634 51.9314 10.5634 54.6229C10.5634 57.3145 11.6245 59.6939 13.2858 61.2385C15.3945 63.1988 17.9719 63.1436 17.9719 63.1436C17.9719 63.1436 20.8246 63.1218 22.7142 61.2616C24.3331 59.6696 25.4372 57.3385 25.4372 54.646C25.4372 51.9535 24.664 50.5769 23.9494 49.2313C23.2352 47.8847 22.4318 47.7318 22.4318 47.7318C22.4318 47.7318 23.0865 47.4867 24.2769 47.9157C24.667 48.0559 25.9677 48.4511 26.6568 49.6896C26.8952 50.1186 27.5492 49.2616 28.5012 51.7093C29.4538 54.1564 30.5254 57.3994 30.4655 59.2966C30.4142 60.928 31.596 59.7246 31.2387 61.9881C30.7856 64.86 30.4655 65.8433 29.5134 67.9846C28.2512 70.8227 27.5369 71.4434 27.4785 71.7701C27.4598 71.879 27.5977 71.832 27.7464 72C27.7464 72 28.9181 70.7994 29.8701 69.0861C31.1665 66.7537 31.3582 65.844 31.7152 64.2532C32.3775 61.303 33.2032 60.2758 32.9652 58.9298C32.7274 57.5833 32.3698 58.1348 31.7754 55.6868C31.1714 53.2046 31.2645 52.3196 30.4065 50.7304C29.5141 49.079 28.9187 48.9565 28.9187 48.9565C28.9187 48.9565 29.6925 48.0995 26.5981 46.203C24.0459 44.6388 22.6708 44.979 22.6708 44.979C22.6708 44.979 24.0069 44.1789 26.4193 44.551C27.6091 44.7342 28.2644 44.4284 28.2644 44.4284C28.2644 44.4284 28.3836 44.8571 30.0492 46.0192C31.7148 47.1813 32.7861 47.1209 32.7861 47.1209C32.7861 47.1209 33.5003 47.2425 34.4532 49.8125C35.2529 51.9737 35.0016 53.7451 35.5736 54.1453C35.6814 54.2208 36 54.2183 36 54.2183C36 54.2183 35.3454 51.4032 34.8692 48.7117L34.8686 48.711ZM20.0808 57.5807C18.8308 57.9481 19.3217 57.8786 18.072 57.8786C16.8223 57.8786 17.2131 57.9361 15.9631 57.5687C15.2234 57.3517 14.8212 57.0854 15.0261 55.9404C15.227 54.8156 15.6737 55.6179 16.6549 54.609C16.7892 54.4713 17.2801 54.013 17.2576 53.5537C17.2251 52.8815 17.3246 52.4759 16.8337 51.9933C15.9017 51.0788 15.4356 50.2345 16.2089 49.7449C16.9827 49.255 18.072 49.321 18.072 49.321C18.072 49.321 19.0612 49.2673 19.8348 49.7569C20.6086 50.2455 20.1423 51.0908 19.2099 52.0053C18.719 52.487 18.8195 52.8935 18.786 53.5657C18.7645 54.024 19.2554 54.4833 19.3893 54.621C20.3705 55.6299 20.8172 54.8276 21.0181 55.9518C21.2224 57.0968 20.82 57.3634 20.0811 57.5811L20.0808 57.5807Z" fill="white"/>
<path d="M35.7844 15.6507C35.7972 15.6393 35.7982 15.6156 35.7844 15.6507V15.6507Z" fill="white"/>
</svg>
