<svg width="34" height="34" viewBox="0 0 34 34" fill="none" xmlns="http://www.w3.org/2000/svg">
<mask id="path-1-inside-1_367_210" fill="white">
<path d="M34 0H0V34H34V0Z"/>
</mask>
<path d="M34 0H0V34H34V0Z" fill="white"/>
<path d="M34 0V-0.3H34.3V0H34ZM34 34H34.3V34.3H34V34ZM34 0V0.3H0V0V-0.3H34V0ZM0 34V33.7H34V34V34.3H0V34ZM34 34H33.7V0H34H34.3V34H34Z" fill="#333333" fill-opacity="0.2" mask="url(#path-1-inside-1_367_210)"/>
<path d="M16.0254 26L25 17L16.0254 8L15 9.02834L18.9746 13.0142L22.9491 17L15 24.9717L16.0254 26Z" fill="#333333"/>
</svg>
