<svg width="24" height="24" viewBox="0 0 24 24" fill="none" xmlns="http://www.w3.org/2000/svg">
<path d="M21 21V19C21 17.9391 20.5522 16.9217 19.7552 16.1716C18.9582 15.4214 17.8772 15 16.75 15H8.25C7.12283 15 6.04183 15.4214 5.2448 16.1716C4.44777 16.9217 4 17.9391 4 19V21" stroke="white" stroke-width="1.5" stroke-linecap="round" stroke-linejoin="round"/>
<path d="M8 7.5C8 8.69347 8.47411 9.83807 9.31802 10.682C10.1619 11.5259 11.3065 12 12.5 12C13.6935 12 14.8381 11.5259 15.682 10.682C16.5259 9.83807 17 8.69347 17 7.5C17 6.30653 16.5259 5.16193 15.682 4.31802C14.8381 3.47411 13.6935 3 12.5 3C11.3065 3 10.1619 3.47411 9.31802 4.31802C8.47411 5.16193 8 6.30653 8 7.5Z" stroke="white" stroke-width="1.5" stroke-linecap="round" stroke-linejoin="round"/>
</svg>
